<?xml version="1.0" encoding="UTF-8" standalone="no"?>
<!-- Created with Inkscape (http://www.inkscape.org/) -->

<svg
   width="301mm"
   height="240mm"
   viewBox="0 0 301 240"
   version="1.1"
   id="svg4309"
   inkscape:export-filename="bitmap.svg"
   inkscape:export-xdpi="96"
   inkscape:export-ydpi="96"
   xmlns:inkscape="http://www.inkscape.org/namespaces/inkscape"
   xmlns:sodipodi="http://sodipodi.sourceforge.net/DTD/sodipodi-0.dtd"
   xmlns="http://www.w3.org/2000/svg"
   xmlns:svg="http://www.w3.org/2000/svg">
  <sodipodi:namedview
     id="namedview4311"
     pagecolor="#505050"
     bordercolor="#eeeeee"
     borderopacity="1"
     inkscape:showpageshadow="0"
     inkscape:pageopacity="0"
     inkscape:pagecheckerboard="0"
     inkscape:deskcolor="#d1d1d1"
     inkscape:document-units="mm"
     showgrid="false" />
  <defs
     id="defs4306">
    <clipPath
       clipPathUnits="userSpaceOnUse"
       id="clipPath536">
      <path
         d="M 0,1538 H 2560 V 0 H 0 Z"
         id="path534" />
    </clipPath>
  </defs>
  <g
     inkscape:label="Layer 1"
     inkscape:groupmode="layer"
     id="layer1"
     transform="translate(1,-110)">
    <path
       d="M -423.16845,479.93127 H 479.94264 V -62.64094 h -903.11109 z"
       style="fill:#ffffff;fill-opacity:1;fill-rule:nonzero;stroke:none;stroke-width:0.352778"
       id="path528" />
    <g
       id="g530"
       transform="matrix(0.35277777,0,0,-0.35277777,-305.00716,502.28602)">
      <g
         id="g532"
         clip-path="url(#clipPath536)">
        <g
           id="g538"
           transform="translate(908.1235,532.9465)">
          <path
             d="m 0,0 c -5.483,-2.146 -7.069,-6.177 -4.755,-12.089 l 3.262,-8.334 16.347,6.4 -3.262,8.333 C 9.278,0.222 5.415,2.119 0,0 m 5.318,23.09 c 4.562,-0.638 8.793,-2.638 12.695,-5.997 3.905,-3.359 7.055,-8.102 9.452,-14.228 l 4.058,-10.365 25.428,9.955 8.197,-20.941 -75.325,-29.487 -12.255,31.307 c -2.37,6.053 -3.315,11.616 -2.838,16.693 0.477,5.074 2.187,9.419 5.125,13.034 2.94,3.615 6.864,6.385 11.78,8.307 4.56,1.785 9.12,2.358 13.683,1.722"
             style="fill:#af6848;fill-opacity:1;fill-rule:nonzero;stroke:none"
             id="path540" />
        </g>
        <g
           id="g542"
           transform="translate(899.8609,597.5343)">
          <path
             d="m 0,0 -1.717,10.996 c -0.473,3.023 -1.545,5.176 -3.216,6.465 -1.671,1.286 -3.87,1.719 -6.591,1.293 -2.568,-0.402 -4.47,-1.493 -5.7,-3.271 -1.233,-1.781 -1.618,-4.144 -1.157,-7.091 l 1.717,-10.996 z M 41.815,25.229 14.82,4.752 l 0.373,-2.379 29.474,4.603 3.471,-22.22 -79.924,-12.484 -5.471,35.031 c -1.004,6.421 -0.738,12.038 0.794,16.846 1.532,4.807 4.068,8.648 7.607,11.525 3.537,2.874 7.727,4.689 12.562,5.446 5.442,0.851 10.455,0.103 15.04,-2.238 C 3.332,36.539 6.942,32.631 9.578,27.16 l 28.359,22.895 z"
             style="fill:#af6848;fill-opacity:1;fill-rule:nonzero;stroke:none"
             id="path544" />
        </g>
        <g
           id="g546"
           transform="translate(858.363,682.4302)">
          <path
             d="m 0,0 80.882,-1.31 -0.363,-22.486 -80.882,1.31 z"
             style="fill:#af6848;fill-opacity:1;fill-rule:nonzero;stroke:none"
             id="path548" />
        </g>
        <g
           id="g550"
           transform="translate(877.8818,709.1984)">
          <path
             d="m 0,0 c -5.486,4.453 -9.354,10.014 -11.605,16.686 -2.25,6.669 -2.618,13.909 -1.103,21.721 1.922,9.911 6.187,17.733 12.793,23.465 6.606,5.731 14.642,8.689 24.106,8.881 L 19.58,46.986 C 16.299,46.141 13.626,44.613 11.561,42.404 9.495,40.195 8.141,37.437 7.5,34.134 6.509,29.026 7.542,24.6 10.591,20.854 c 3.055,-3.749 7.62,-6.212 13.702,-7.393 6.158,-1.196 11.354,-0.626 15.585,1.71 4.234,2.333 6.845,6.053 7.834,11.161 0.643,3.303 0.419,6.365 -0.67,9.188 -1.089,2.821 -2.996,5.237 -5.724,7.247 l 4.611,23.767 C 54.637,62.817 60.983,57.068 64.965,49.283 68.948,41.496 69.976,32.648 68.054,22.734 66.539,14.925 63.492,8.348 58.907,3.003 54.325,-2.341 48.657,-6.053 41.902,-8.131 35.15,-10.211 27.83,-10.484 19.945,-8.954 12.136,-7.439 5.488,-4.455 0,0"
             style="fill:#af6848;fill-opacity:1;fill-rule:nonzero;stroke:none"
             id="path552" />
        </g>
        <g
           id="g554"
           transform="translate(976.3457,821.9293)">
          <path
             d="m 0,0 -42.865,-7.922 32.106,-15.041 -9.542,-20.364 -73.25,34.319 9.542,20.364 31.586,-14.798 -20.924,37.554 11,23.482 22.927,-43.561 50.956,10.592 z"
             style="fill:#af6848;fill-opacity:1;fill-rule:nonzero;stroke:none"
             id="path556" />
        </g>
        <g
           id="g558"
           transform="translate(993.4238,880.9803)">
          <path
             d="M 0,0 15.064,20.113 28.839,9.795 0.292,-28.317 -64.451,20.177 -50.969,38.178 Z"
             style="fill:#af6848;fill-opacity:1;fill-rule:nonzero;stroke:none"
             id="path560" />
        </g>
        <g
           id="g562"
           transform="translate(1028.681,1007.1259)">
          <path
             d="m 0,0 15.505,-60.128 17.109,-19.18 -16.868,-15.047 -17.11,19.181 -57.972,22.242 19.18,17.11 31.392,-13.819 -10.158,32.76 z"
             style="fill:#af6848;fill-opacity:1;fill-rule:nonzero;stroke:none"
             id="path564" />
        </g>
        <g
           id="g566"
           transform="translate(1125.9659,1029.7067)">
          <path
             d="m 0,0 c -2.441,5.359 -6.55,6.725 -12.328,4.095 l -8.146,-3.71 7.276,-15.977 8.146,3.71 C 0.726,-9.252 2.411,-5.291 0,0 m 23.346,-4.058 c -0.39,-4.589 -2.159,-8.925 -5.301,-13.003 -3.145,-4.08 -7.71,-7.483 -13.697,-10.209 L -5.78,-31.881 5.537,-56.735 -14.93,-66.054 -48.453,7.566 -17.855,21.497 c 5.914,2.694 11.422,3.941 16.515,3.739 5.091,-0.205 9.525,-1.674 13.293,-4.414 3.768,-2.738 6.745,-6.509 8.932,-11.312 2.03,-4.456 2.848,-8.979 2.461,-13.568"
             style="fill:#af6848;fill-opacity:1;fill-rule:nonzero;stroke:none"
             id="path568" />
        </g>
        <g
           id="g570"
           transform="translate(1215.5339,1031.5774)">
          <path
             d="m 0,0 -13.619,23.977 -3.379,-27.331 z m 8.847,-15.799 -28.142,-5.552 -1.722,-13.789 -23.19,-4.575 13.271,85.069 25.443,5.02 44.475,-73.676 -23.302,-4.599 z"
             style="fill:#af6848;fill-opacity:1;fill-rule:nonzero;stroke:none"
             id="path572" />
        </g>
        <g
           id="g574"
           transform="translate(1284.2312,1087.5397)">
          <path
             d="m 0,0 1.313,-80.882 -22.488,-0.363 -1.311,80.88 z"
             style="fill:#af6848;fill-opacity:1;fill-rule:nonzero;stroke:none"
             id="path576" />
        </g>
        <g
           id="g578"
           transform="translate(1328.8008,1048.658)">
          <path
             d="m 0,0 11.003,-1.676 c 3.023,-0.46 5.4,-0.09 7.132,1.118 1.732,1.206 2.806,3.169 3.221,5.893 0.392,2.569 -0.076,4.713 -1.401,6.423 -1.325,1.71 -3.461,2.792 -6.411,3.24 L 2.541,16.674 Z m 11.451,-47.476 -11.385,31.913 -2.383,0.363 -4.494,-29.491 -22.232,3.388 12.187,79.968 35.05,-5.342 c 6.426,-0.979 11.699,-2.925 15.823,-5.834 4.122,-2.911 7.021,-6.487 8.694,-10.728 1.676,-4.24 2.146,-8.781 1.408,-13.619 -0.831,-5.444 -3.052,-9.999 -6.667,-13.665 -3.617,-3.669 -8.431,-5.932 -14.442,-6.796 l 13.282,-33.942 z"
             style="fill:#af6848;fill-opacity:1;fill-rule:nonzero;stroke:none"
             id="path580" />
        </g>
        <g
           id="g582"
           transform="translate(1428.8188,1041.265)">
          <path
             d="m 0,0 c 5.776,4.068 12.179,6.28 19.212,6.633 7.03,0.353 14.096,-1.259 21.202,-4.84 9.018,-4.546 15.385,-10.774 19.105,-18.689 3.719,-7.914 4.384,-16.452 1.995,-25.613 l -21.619,10.898 c 0.078,3.386 -0.665,6.375 -2.229,8.962 -1.566,2.589 -3.851,4.64 -6.857,6.153 -4.645,2.343 -9.186,2.553 -13.621,0.636 -4.436,-1.92 -8.049,-5.644 -10.838,-11.176 -2.823,-5.603 -3.688,-10.757 -2.589,-15.463 1.096,-4.709 3.966,-8.231 8.611,-10.574 3.006,-1.516 6.014,-2.132 9.025,-1.852 3.011,0.283 5.853,1.462 8.53,3.54 l 21.619,-10.899 c -5.944,-7.368 -13.2,-11.911 -21.777,-13.628 -8.574,-1.718 -17.37,-0.302 -26.386,4.24 -7.105,3.584 -12.605,8.302 -16.503,14.165 -3.9,5.863 -5.929,12.326 -6.094,19.392 -0.166,7.065 1.561,14.182 5.176,21.356 C -10.457,-9.656 -5.78,-4.07 0,0"
             style="fill:#af6848;fill-opacity:1;fill-rule:nonzero;stroke:none"
             id="path584" />
        </g>
        <g
           id="g586"
           transform="translate(1528.7272,940.4212)">
          <path
             d="M 0,0 10.584,25.465 -13.076,11.368 Z M -7.052,-16.676 -28.697,2.146 -40.645,-4.95 -58.484,10.557 16.847,52.252 36.417,35.238 5.505,-45.079 -12.418,-29.494 Z"
             style="fill:#af6848;fill-opacity:1;fill-rule:nonzero;stroke:none"
             id="path588" />
        </g>
        <g
           id="g590"
           transform="translate(1587.3763,897.8928)">
          <path
             d="m 0,0 6.482,-9.047 c 1.781,-2.487 3.707,-3.929 5.783,-4.326 2.07,-0.4 4.226,0.205 6.465,1.81 2.114,1.512 3.32,3.344 3.619,5.485 0.3,2.146 -0.419,4.429 -2.155,6.855 l -6.485,9.047 z m -25.989,-41.347 14.893,30.432 -1.403,1.958 -24.249,-17.375 -13.1,18.281 65.757,47.116 20.649,-28.822 c 3.785,-5.284 6.075,-10.418 6.872,-15.402 0.794,-4.982 0.258,-9.554 -1.608,-13.714 -1.866,-4.161 -4.789,-7.666 -8.767,-10.516 -4.477,-3.208 -9.29,-4.799 -14.437,-4.77 -5.152,0.027 -10.134,1.893 -14.95,5.593 l -15.022,-33.208 z"
             style="fill:#af6848;fill-opacity:1;fill-rule:nonzero;stroke:none"
             id="path592" />
        </g>
        <g
           id="g594"
           transform="translate(1625.7612,798.0209)">
          <path
             d="M 0,0 20.939,17.943 -6.536,16.045 Z m -13.821,-11.697 -10.818,26.566 -13.865,-0.94 -8.916,21.891 86.041,3.201 9.78,-24.018 -63.84,-57.714 -8.957,21.999 z"
             style="fill:#af6848;fill-opacity:1;fill-rule:nonzero;stroke:none"
             id="path596" />
        </g>
        <g
           id="g598"
           transform="translate(1702,682.7518)">
          <path
             d="M 0,0 -83.953,16.518 -87.904,45.045 -11.619,83.878 -8.314,60.011 -63.643,33.81 -3.291,23.755 Z"
             style="fill:#af6848;fill-opacity:1;fill-rule:nonzero;stroke:none"
             id="path600" />
        </g>
        <g
           id="g602"
           transform="translate(1646.6393,617.6061)">
          <path
             d="M 0,0 26.943,5.868 1.856,17.227 Z m -17.714,-3.746 3.072,28.522 -12.652,5.746 2.533,23.501 77.267,-37.983 -2.777,-25.784 -83.573,-20.537 2.543,23.614 z"
             style="fill:#af6848;fill-opacity:1;fill-rule:nonzero;stroke:none"
             id="path604" />
        </g>
        <g
           id="g606"
           transform="translate(1584.6018,511.8589)">
          <path
             d="M 0,0 7.897,21.056 60.744,33.218 18.415,49.096 26.315,70.151 102.052,41.742 94.155,20.683 40.772,8.723 83.637,-7.356 75.737,-28.412 Z"
             style="fill:#af6848;fill-opacity:1;fill-rule:nonzero;stroke:none"
             id="path608" />
        </g>
        <g
           id="g610"
           transform="translate(1077.9972,674.1579)">
          <path
             d="m 0,0 h 400.666 c 8.287,16.556 43.8,96.023 11.079,183.652 v -10e-4 c -1.096,2.935 -3.055,5.114 -5.371,5.978 -1.708,0.637 -3.491,0.491 -5.157,-0.418 -19.529,-10.666 -38.692,-15.851 -58.586,-15.851 -19.463,0 -33.111,4.061 -48.913,8.764 -21.336,6.349 -45.517,13.544 -93.385,13.544 -47.87,0 -72.051,-7.195 -93.385,-13.544 -15.804,-4.703 -29.45,-8.764 -48.915,-8.764 -19.894,0 -39.057,5.185 -58.586,15.85 -1.664,0.911 -3.449,1.053 -5.157,0.419 -2.316,-0.864 -4.272,-3.042 -5.368,-5.977 C -43.8,96.029 -8.294,16.567 0,0 M 408.062,-12.472 H -7.398 l -1.795,3.146 c -2.153,3.776 -52.292,93.65 -13.568,197.341 2.36,6.325 6.989,11.172 12.696,13.3 5.12,1.91 10.623,1.502 15.49,-1.16 17.648,-9.637 34.855,-14.323 52.608,-14.323 17.648,0 30.49,3.821 45.359,8.246 21.053,6.265 47.256,14.062 96.941,14.062 49.685,0 75.888,-7.797 96.942,-14.062 14.868,-4.425 27.71,-8.246 45.356,-8.246 17.75,0 34.96,4.686 52.608,14.325 4.867,2.657 10.367,3.064 15.488,1.159 5.709,-2.128 10.338,-6.975 12.7,-13.3 v -0.001 C 462.148,84.324 412.01,-5.55 409.857,-9.326 Z"
             style="fill:#af6848;fill-opacity:1;fill-rule:nonzero;stroke:none"
             id="path612" />
        </g>
        <g
           id="g614"
           transform="translate(1155.7,665.1097)">
          <path
             d="m 0,0 c -40.587,80.329 -26.466,185.092 -25.845,189.512 l 12.35,-1.733 C -13.641,186.734 -27.665,82.41 11.132,5.625 Z"
             style="fill:#af6848;fill-opacity:1;fill-rule:nonzero;stroke:none"
             id="path616" />
        </g>
        <g
           id="g618"
           transform="translate(1400.9584,665.1097)">
          <path
             d="m 0,0 -11.132,5.625 c 38.843,76.874 24.773,181.109 24.627,182.152 l 12.35,1.735 C 26.466,185.092 40.587,80.329 0,0"
             style="fill:#af6848;fill-opacity:1;fill-rule:nonzero;stroke:none"
             id="path620" />
        </g>
        <path
           d="m 1284.566,667.922 h -12.472 v 118.325 h 12.472 z"
           style="fill:#af6848;fill-opacity:1;fill-rule:nonzero;stroke:none"
           id="path622" />
        <path
           d="m 1284.566,800.563 h -12.472 v 44.847 h 12.472 z"
           style="fill:#af6848;fill-opacity:1;fill-rule:nonzero;stroke:none"
           id="path624" />
        <g
           id="g626"
           transform="translate(1066.8331,674.1658)">
          <path
             d="m 0,0 7.234,-42.504 c 3.991,1.023 8.106,1.771 12.272,2.245 l -4.739,27.787 h 393.46 l -4.714,-27.612 c 4.19,-0.399 8.281,-1.073 12.297,-2.021 L 422.994,0 Z"
             style="fill:#af6848;fill-opacity:1;fill-rule:nonzero;stroke:none"
             id="path628" />
        </g>
        <g
           id="g630"
           transform="translate(1338.2295,545.5188)">
          <path
             d="m 0,0 -19.313,-14.297 c -1.325,4.003 -3.178,7.863 -5.592,11.457 -4.066,6.054 -9.407,10.954 -15.524,14.483 l 1.886,11.781 c 0.718,4.567 2.691,8.793 5.714,12.228 5.513,6.294 14.041,9.368 22.328,7.97 3.011,-0.46 5.919,-1.537 8.659,-3.208 C 5.493,35.968 9.873,28.181 9.873,19.582 9.873,11.79 6.272,4.65 0,0 m -123.11,72.414 c 4.18,4.28 9.953,6.107 15.843,5.013 9.517,-1.744 14.496,-10.091 14.496,-17.436 0,-3.33 -0.977,-6.603 -2.826,-9.475 l -1.48,-2.303 c -3.272,1.097 -6.689,1.725 -10.137,1.725 -6.475,0 -12.675,-1.981 -18.026,-5.702 l -2.533,12.211 c -1.222,5.868 0.478,11.688 4.663,15.967 M 29.979,40.37 26.573,47.035 15.321,41.28 c -2.821,3.865 -6.418,7.205 -10.683,9.789 -2.437,1.486 -4.99,2.627 -7.602,3.489 l 1.002,13.952 9.577,10.493 -5.53,5.043 -4.842,-5.306 c -2.308,9.212 -8.838,17.033 -17.97,20.83 l -4.789,-11.517 c 7.235,-3.008 11.719,-10.267 11.159,-18.062 L -15.333,56.412 C -23.153,56.223 -30.79,53.52 -37.001,48.75 l -9.21,10.835 c -3.966,4.674 -5.286,10.732 -3.623,16.625 1.668,5.9 5.967,10.381 11.797,12.296 1.885,0.609 3.794,0.918 5.678,0.918 v 12.472 c -3.191,0 -6.396,-0.514 -9.526,-1.525 l 1.919,-5.934 -1.941,5.927 c -9.707,-3.181 -17.156,-10.945 -19.928,-20.766 -2.77,-9.809 -0.485,-20.306 6.116,-28.086 l 10.22,-12.023 c -1.475,-2.3 -2.678,-4.761 -3.606,-7.335 l -8.611,6.17 -4.36,-6.085 11.046,-7.915 -1.255,-7.843 c -3.745,0.952 -7.635,1.452 -11.596,1.452 -3.417,0 -6.775,-0.39 -10.038,-1.102 l -2.39,9.228 -12.073,-3.127 2.686,-10.372 c -6.806,-3.571 -12.735,-8.809 -17.162,-15.4 -0.686,-1.021 -1.312,-2.07 -1.911,-3.131 l -12.347,7.423 c -4.577,2.757 -7.738,7.117 -8.905,12.282 -1.167,5.164 -0.188,10.613 2.718,15.01 1.177,1.819 2.721,3.454 4.587,4.854 6.075,4.551 14.413,5.052 21.032,1.379 2.738,-1.515 5.076,-3.678 6.759,-6.255 l 10.441,6.825 c -1.586,2.423 -3.544,4.588 -5.736,6.493 l 1.11,1.726 c 3.147,4.881 4.811,10.494 4.811,16.225 0,7.661 -2.888,14.727 -7.684,20.105 l 8.251,8.052 -5.227,5.354 -8.677,-8.466 c -1.258,0.848 -2.577,1.617 -3.966,2.272 l -3.422,12.632 -7.225,-1.958 2.211,-8.163 c -9.563,1.438 -19.204,-1.743 -25.99,-8.684 -7.035,-7.196 -10.009,-17.375 -7.956,-27.226 l 4.097,-19.758 c 0.109,-0.516 0.288,-1.01 0.441,-1.512 -1.602,-3.117 -2.653,-6.488 -3.161,-9.949 l -7.372,3.92 -3.512,-6.606 10.76,-5.722 c 0.129,-1.103 0.298,-2.204 0.545,-3.296 1.919,-8.509 7.118,-15.69 14.64,-20.22 l 14.106,-8.48 c -1.866,-7.512 -1.859,-15.414 0.103,-23.012 l -8.424,5.325 -4,-6.324 15.563,-9.838 -9.834,-2.222 1.652,-7.298 11.793,2.665 8.23,-20.137 c 4.1,-10.026 13.746,-16.504 24.576,-16.504 h 11.799 c 10.83,0 20.477,6.478 24.576,16.504 l -11.546,4.72 c -2.173,-5.317 -7.288,-8.752 -13.03,-8.752 h -11.799 c -5.742,0 -10.857,3.435 -13.03,8.75 l -12.986,31.774 c -4.418,10.813 -3.217,22.573 3.294,32.268 6.511,9.695 16.944,15.256 28.622,15.256 11.677,0 22.11,-5.561 28.621,-15.256 6.511,-9.695 7.712,-21.455 3.294,-32.266 l -2.736,-6.689 5.773,-2.36 -5.773,2.358 -2.582,-6.324 11.546,-4.716 2.581,6.322 h 0.001 l 2.736,6.691 c 2.539,6.213 3.672,12.778 3.463,19.277 1.275,0.599 2.509,1.293 3.65,2.135 l 20.732,15.346 c 9.483,7.032 14.919,17.821 14.919,29.603 0,5.374 -1.148,10.531 -3.26,15.216 z"
             style="fill:#587f2e;fill-opacity:1;fill-rule:nonzero;stroke:none"
             id="path632" />
        </g>
        <g
           id="g634"
           transform="translate(1285.8163,532.5013)">
          <path
             d="m 0,0 -7.602,-13.385 6.508,-3.698 7.603,13.385 z"
             style="fill:#587f2e;fill-opacity:1;fill-rule:nonzero;stroke:none"
             id="path636" />
        </g>
        <g
           id="g638"
           transform="translate(1324.0428,565.9268)">
          <path
             d="m 0,0 5.184,-14.496 7.044,2.519 -5.183,14.496 z"
             style="fill:#587f2e;fill-opacity:1;fill-rule:nonzero;stroke:none"
             id="path640" />
        </g>
        <g
           id="g642"
           transform="translate(1235.1082,610.8082)">
          <path
             d="m 0,0 -8.292,3.673 -3.03,-6.84 8.292,-3.673 z"
             style="fill:#587f2e;fill-opacity:1;fill-rule:nonzero;stroke:none"
             id="path644" />
        </g>
        <g
           id="g646"
           transform="translate(1219.5549,566.8183)">
          <path
             d="M 0,0 6.937,-2.801 10.518,6.06 3.581,8.862 Z"
             style="fill:#587f2e;fill-opacity:1;fill-rule:nonzero;stroke:none"
             id="path648" />
        </g>
        <g
           id="g650"
           transform="translate(1264.222,500.7835)">
          <path
             d="M 0,0 6.099,4.336 -1.296,14.747 -7.395,10.411 Z"
             style="fill:#587f2e;fill-opacity:1;fill-rule:nonzero;stroke:none"
             id="path652" />
        </g>
        <g
           id="g654"
           transform="translate(1271.5321,480.037)">
          <path
             d="M 0,0 5.632,-4.925 14.823,5.586 9.191,10.511 Z"
             style="fill:#587f2e;fill-opacity:1;fill-rule:nonzero;stroke:none"
             id="path656" />
        </g>
        <g
           id="g658"
           transform="translate(1306.1049,611.7533)">
          <path
             d="M 0,0 7.483,4.96 3.347,11.195 -4.136,6.236 Z"
             style="fill:#587f2e;fill-opacity:1;fill-rule:nonzero;stroke:none"
             id="path660" />
        </g>
        <g
           id="g662"
           transform="translate(1516.9648,495.2842)">
          <path
             d="m 0,0 -40.455,40.456 h 57.24 C 15.473,25.122 9.383,11.137 0,0 m -49.273,-25.603 v 57.24 L -8.818,-8.818 c -11.136,-9.383 -25.121,-15.473 -40.455,-16.785 m -17.209,72.294 c 0,6.06 4.913,10.974 10.973,10.974 6.061,0 10.974,-4.914 10.974,-10.974 0,-6.061 -4.913,-10.974 -10.974,-10.974 -6.06,0 -10.973,4.913 -10.973,10.974 m 4.737,-72.294 c -15.334,1.312 -29.318,7.402 -40.455,16.785 l 40.455,40.455 z m -66.058,66.059 h 57.241 L -111.017,0 c -9.383,11.137 -15.474,25.122 -16.786,40.456 m 16.785,52.927 40.455,-40.455 h -57.24 c 1.312,15.334 7.403,29.319 16.785,40.455 m 49.273,25.602 v -57.24 l -40.454,40.456 c 11.136,9.382 25.12,15.472 40.454,16.784 m 12.472,0 c 15.334,-1.312 29.319,-7.402 40.455,-16.784 L -49.273,61.745 Z M 16.785,52.928 H -40.454 L 0,93.383 C 9.383,82.247 15.473,68.262 16.785,52.928 m -72.294,78.815 c -46.898,0 -85.052,-38.154 -85.052,-85.051 0,-46.9 38.154,-85.053 85.052,-85.053 46.899,0 85.052,38.153 85.052,85.053 0,46.897 -38.153,85.051 -85.052,85.051"
             style="fill:#af6848;fill-opacity:1;fill-rule:nonzero;stroke:none"
             id="path664" />
        </g>
        <g
           id="g666"
           transform="translate(1152.4086,495.2842)">
          <path
             d="M 0,0 -40.455,40.456 H 16.786 C 15.474,25.122 9.383,11.137 0,0 m -49.273,-25.603 v 57.24 L -8.818,-8.818 c -11.136,-9.383 -25.121,-15.473 -40.455,-16.785 m -17.209,72.294 c 0,6.06 4.913,10.974 10.973,10.974 6.061,0 10.974,-4.914 10.974,-10.974 0,-6.061 -4.913,-10.974 -10.974,-10.974 -6.06,0 -10.973,4.913 -10.973,10.974 m 4.737,-72.294 c -15.333,1.312 -29.318,7.402 -40.455,16.785 l 40.455,40.455 z m -66.058,66.059 h 57.241 L -111.017,0 c -9.383,11.137 -15.474,25.122 -16.786,40.456 m 16.785,52.927 40.455,-40.455 h -57.24 c 1.312,15.334 7.403,29.319 16.785,40.455 m 49.273,25.602 v -57.24 l -40.454,40.456 c 11.136,9.382 25.121,15.472 40.454,16.784 m 12.472,0 c 15.334,-1.312 29.319,-7.402 40.455,-16.784 L -49.273,61.745 Z M 16.786,52.928 h -57.24 L 0,93.383 C 9.383,82.247 15.474,68.262 16.786,52.928 m -72.295,78.815 c -46.898,0 -85.051,-38.154 -85.051,-85.051 0,-46.9 38.153,-85.053 85.051,-85.053 46.899,0 85.052,38.153 85.052,85.053 0,46.897 -38.153,85.051 -85.052,85.051"
             style="fill:#af6848;fill-opacity:1;fill-rule:nonzero;stroke:none"
             id="path668" />
        </g>
        <path
           d="m 1161.319,639.337 h -79.323 v 12.48 h 79.323 z"
           style="fill:#af6848;fill-opacity:1;fill-rule:nonzero;stroke:none"
           id="path670" />
        <path
           d="m 1207.194,639.337 h -33.448 v 12.48 h 33.448 z"
           style="fill:#af6848;fill-opacity:1;fill-rule:nonzero;stroke:none"
           id="path672" />
      </g>
    </g>
  </g>
</svg>
